<svg width="800" height="500" xmlns="http://www.w3.org/2000/svg">
  <rect width="800" height="500" fill="#f0f2f5"/>
  <rect x="0" y="0" width="220" height="500" fill="#001529"/>
  <text x="20" y="30" font-size="16" fill="#fff" font-weight="600">🐨 KoalaExam</text>
  <rect x="0" y="60" width="220" height="40" fill="#1890ff"/>
  <text x="40" y="85" font-size="14" fill="#fff">📊 数据看板</text>
  <text x="40" y="135" font-size="13" fill="#fff" opacity="0.65">👥 用户管理</text>
  <text x="40" y="175" font-size="13" fill="#fff" opacity="0.65">📚 题库管理</text>
  <text x="40" y="215" font-size="13" fill="#fff" opacity="0.65">📝 试卷管理</text>
  <text x="40" y="255" font-size="13" fill="#fff" opacity="0.65">📅 考试管理</text>
  <text x="40" y="295" font-size="13" fill="#fff" opacity="0.65">✏️ 人工批改</text>
  <text x="40" y="335" font-size="13" fill="#fff" opacity="0.65">🏆 排行榜</text>
  
  <rect x="240" y="20" width="540" height="80" rx="4" fill="#fff"/>
  <text x="260" y="50" font-size="12" fill="#909399">总用户数</text>
  <text x="260" y="80" font-size="28" font-weight="700" fill="#303133">19</text>
  <text x="400" y="50" font-size="12" fill="#909399">题目总数</text>
  <text x="400" y="80" font-size="28" font-weight="700" fill="#67c23a">1326</text>
  <text x="540" y="50" font-size="12" fill="#909399">试卷总数</text>
  <text x="540" y="80" font-size="28" font-weight="700" fill="#e6a23c">113</text>
  <text x="680" y="50" font-size="12" fill="#909399">考试总数</text>
  <text x="680" y="80" font-size="28" font-weight="700" fill="#f56c6c">11</text>
  
  <rect x="240" y="115" width="360" height="180" rx="4" fill="#fff"/>
  <text x="260" y="140" font-size="14" font-weight="600" fill="#303133">📈 考试趋势</text>
  <polyline points="260,260 310,240 360,260 410,210 460,230 510,180 560,210" stroke="#409eff" stroke-width="2" fill="none"/>
  <circle cx="260" cy="260" r="3" fill="#409eff"/>
  <circle cx="560" cy="210" r="3" fill="#409eff"/>
  <line x1="260" y1="280" x2="580" y2="280" stroke="#dcdfe6"/>
  
  <rect x="615" y="115" width="165" height="180" rx="4" fill="#fff"/>
  <text x="635" y="140" font-size="14" font-weight="600" fill="#303133">📊 题型分布</text>
  <circle cx="697" cy="220" r="50" fill="none" stroke="#409eff" stroke-width="20"/>
  <circle cx="697" cy="220" r="50" fill="none" stroke="#67c23a" stroke-width="20" stroke-dasharray="80 314" transform="rotate(-90 697 220)"/>
  <circle cx="697" cy="220" r="50" fill="none" stroke="#e6a23c" stroke-width="20" stroke-dasharray="40 314" transform="rotate(40 697 220)"/>
  
  <rect x="240" y="310" width="540" height="170" rx="4" fill="#fff"/>
  <text x="260" y="335" font-size="14" font-weight="600" fill="#303133">🕐 最近考试记录</text>
  <text x="260" y="365" font-size="12" fill="#909399">考生</text>
  <text x="500" y="365" font-size="12" fill="#909399">考试</text>
  <text x="700" y="365" font-size="12" fill="#909399">分数</text>
  <text x="260" y="395" font-size="13" fill="#303133">学员小虎</text>
  <text x="500" y="395" font-size="13" fill="#303133">算法能力测试</text>
  <text x="700" y="395" font-size="13" fill="#67c23a" font-weight="600">112 分</text>
  <text x="260" y="425" font-size="13" fill="#303133">大卫</text>
  <text x="500" y="425" font-size="13" fill="#303133">CRUD 测试</text>
  <text x="700" y="425" font-size="13" fill="#67c23a" font-weight="600">122 分</text>
  <text x="260" y="455" font-size="13" fill="#303133">凯西</text>
  <text x="500" y="455" font-size="13" fill="#303133">Python 周末考</text>
  <text x="700" y="455" font-size="13" fill="#67c23a" font-weight="600">128 分</text>
</svg>