<svg width="800" height="500" xmlns="http://www.w3.org/2000/svg">
  <rect width="800" height="500" fill="#f0f2f5"/>
  <rect x="0" y="0" width="220" height="500" fill="#001529"/>
  <text x="20" y="30" font-size="16" fill="#fff" font-weight="600">🐨 KoalaExam</text>
  <text x="40" y="135" font-size="13" fill="#fff" opacity="0.65">📊 数据看板</text>
  <rect x="0" y="160" width="220" height="40" fill="#1890ff"/>
  <text x="40" y="185" font-size="14" fill="#fff">📚 题库管理</text>
  <text x="40" y="225" font-size="13" fill="#fff" opacity="0.65">📝 试卷管理</text>
  <text x="40" y="265" font-size="13" fill="#fff" opacity="0.65">📅 考试管理</text>
  
  <rect x="240" y="20" width="540" height="40" rx="4" fill="#fff"/>
  <text x="260" y="45" font-size="13" fill="#909399">🔍 搜索标题/题干...</text>
  <rect x="540" y="28" width="80" height="24" rx="3" fill="#f5f7fa" stroke="#dcdfe6"/>
  <text x="555" y="45" font-size="12" fill="#606266">全部类型</text>
  <rect x="640" y="20" width="140" height="40" rx="4" fill="#409eff"/>
  <text x="710" y="45" text-anchor="middle" font-size="14" fill="#fff">+ 新增题目</text>
  
  <rect x="240" y="80" width="540" height="380" rx="4" fill="#fff"/>
  <rect x="240" y="80" width="540" height="36" fill="#f5f7fa"/>
  <text x="260" y="103" font-size="12" font-weight="600" fill="#303133">ID</text>
  <text x="320" y="103" font-size="12" font-weight="600" fill="#303133">题型</text>
  <text x="380" y="103" font-size="12" font-weight="600" fill="#303133">题干</text>
  <text x="600" y="103" font-size="12" font-weight="600" fill="#303133">分值</text>
  <text x="640" y="103" font-size="12" font-weight="600" fill="#303133">难度</text>
  <text x="700" y="103" font-size="12" font-weight="600" fill="#303133">操作</text>
  
  <text x="260" y="140" font-size="12" fill="#909399">1</text>
  <rect x="320" y="125" width="50" height="20" rx="2" fill="#ecf5ff"/>
  <text x="345" y="139" text-anchor="middle" font-size="11" fill="#409eff">单选</text>
  <text x="380" y="140" font-size="12" fill="#303133">下列哪个排序算法时间复杂度...</text>
  <text x="600" y="140" font-size="12" fill="#303133">5</text>
  <text x="640" y="140" font-size="12" fill="#67c23a">★★☆</text>
  <text x="700" y="140" font-size="12" fill="#409eff">编辑 删除</text>
  
  <text x="260" y="175" font-size="12" fill="#909399">2</text>
  <rect x="320" y="160" width="50" height="20" rx="2" fill="#fef0f0"/>
  <text x="345" y="174" text-anchor="middle" font-size="11" fill="#f56c6c">编程</text>
  <text x="380" y="175" font-size="12" fill="#303133">反转链表 LeetCode #206</text>
  <text x="600" y="175" font-size="12" fill="#303133">10</text>
  <text x="640" y="175" font-size="12" fill="#e6a23c">★★★</text>
  <text x="700" y="175" font-size="12" fill="#409eff">编辑 删除</text>
  
  <text x="260" y="210" font-size="12" fill="#909399">3</text>
  <rect x="320" y="195" width="50" height="20" rx="2" fill="#f0f9ff"/>
  <text x="345" y="209" text-anchor="middle" font-size="11" fill="#67c23a">判断</text>
  <text x="380" y="210" font-size="12" fill="#303133">TCP 是面向连接的协议</text>
  <text x="600" y="210" font-size="12" fill="#303133">2</text>
  <text x="640" y="210" font-size="12" fill="#67c23a">★☆☆</text>
  <text x="700" y="210" font-size="12" fill="#409eff">编辑 删除</text>
  
  <text x="260" y="245" font-size="12" fill="#909399">4</text>
  <rect x="320" y="230" width="50" height="20" rx="2" fill="#ecf5ff"/>
  <text x="345" y="244" text-anchor="middle" font-size="11" fill="#409eff">单选</text>
  <text x="380" y="245" font-size="12" fill="#303133">HTTP 状态码 404 表示...</text>
  <text x="600" y="245" font-size="12" fill="#303133">3</text>
  <text x="640" y="245" font-size="12" fill="#67c23a">★★☆</text>
  <text x="700" y="245" font-size="12" fill="#409eff">编辑 删除</text>
  
  <text x="260" y="280" font-size="12" fill="#909399">5</text>
  <rect x="320" y="265" width="50" height="20" rx="2" fill="#fdf6ec"/>
  <text x="345" y="279" text-anchor="middle" font-size="11" fill="#e6a23c">多选</text>
  <text x="380" y="280" font-size="12" fill="#303133">下列属于 CSS 盒模型属性...</text>
  <text x="600" y="280" font-size="12" fill="#303133">5</text>
  <text x="640" y="280" font-size="12" fill="#e6a23c">★★★</text>
  <text x="700" y="280" font-size="12" fill="#409eff">编辑 删除</text>
  
  <text x="500" y="445" font-size="12" fill="#606266">共 1326 条</text>
  <rect x="560" y="430" width="200" height="22" rx="3" fill="#f5f7fa"/>
  <text x="580" y="445" font-size="12" fill="#606266">1 2 3 4 5 ... 89</text>
</svg>